<svg id="visual" viewBox="0 0 1920 1080" width="1920" height="1080" xmlns="http://www.w3.org/2000/svg" xmlns:xlink="http://www.w3.org/1999/xlink" version="1.1"><rect x="0" y="0" width="1920" height="1080" fill="#006FEE"></rect><defs><linearGradient id="grad1_0" x1="43.8%" y1="100%" x2="100%" y2="0%"><stop offset="14.444444444444446%" stop-color="#6698FA" stop-opacity="1"></stop><stop offset="85.55555555555554%" stop-color="#6698FA" stop-opacity="1"></stop></linearGradient></defs><defs><linearGradient id="grad1_1" x1="43.8%" y1="100%" x2="100%" y2="0%"><stop offset="14.444444444444446%" stop-color="#6698FA" stop-opacity="1"></stop><stop offset="85.55555555555554%" stop-color="#006FEE" stop-opacity="1"></stop></linearGradient></defs><defs><linearGradient id="grad2_0" x1="0%" y1="100%" x2="56.3%" y2="0%"><stop offset="14.444444444444446%" stop-color="#6698FA" stop-opacity="1"></stop><stop offset="85.55555555555554%" stop-color="#6698FA" stop-opacity="1"></stop></linearGradient></defs><defs><linearGradient id="grad2_1" x1="0%" y1="100%" x2="56.3%" y2="0%"><stop offset="14.444444444444446%" stop-color="#006FEE" stop-opacity="1"></stop><stop offset="85.55555555555554%" stop-color="#6698FA" stop-opacity="1"></stop></linearGradient></defs><g transform="translate(1920, 1080)"><path d="M-972 0C-950.9 -121.6 -929.8 -243.2 -888.8 -368.1C-847.8 -493.1 -786.8 -621.4 -687.3 -687.3C-587.8 -753.2 -449.7 -756.6 -328.7 -793.6C-207.7 -830.6 -103.9 -901.3 0 -972L0 0Z" fill="#3E7BFA"></path><path d="M-486 0C-475.4 -60.8 -464.9 -121.6 -444.4 -184.1C-423.9 -246.6 -393.4 -310.7 -343.7 -343.7C-293.9 -376.6 -224.9 -378.3 -164.4 -396.8C-103.9 -415.3 -51.9 -450.7 0 -486L0 0Z" fill="#6698FA"></path></g><g transform="translate(0, 0)"><path d="M972 0C916.8 109.6 861.6 219.2 823.2 341C784.7 462.7 763 596.6 687.3 687.3C611.7 778 482.1 825.4 358.6 865.7C235 905.9 117.5 939 0 972L0 0Z" fill="#3E7BFA"></path><path d="M486 0C458.4 54.8 430.8 109.6 411.6 170.5C392.4 231.4 381.5 298.3 343.7 343.7C305.8 389 241.1 412.7 179.3 432.8C117.5 453 58.8 469.5 0 486L0 0Z" fill="#6698FA"></path></g></svg>